<mxfile host="Electron" agent="Mozilla/5.0 (X11; Linux x86_64) AppleWebKit/537.36 (KHTML, like Gecko) draw.io/26.0.16 Chrome/132.0.6834.196 Electron/34.2.0 Safari/537.36" version="26.0.16" pages="2">
  <diagram name="Use Case Diagram" id="e8cO_xSDci2qGh4GoDBb">
    <mxGraphModel dx="1290" dy="630" grid="1" gridSize="10" guides="1" tooltips="1" connect="1" arrows="1" fold="1" page="1" pageScale="1" pageWidth="827" pageHeight="1169" math="0" shadow="0">
      <root>
        <mxCell id="0" />
        <mxCell id="1" parent="0" />
        <mxCell id="7EtB1v8YptLS86tRCCEC-6" style="rounded=0;orthogonalLoop=1;jettySize=auto;html=1;entryX=1;entryY=0.5;entryDx=0;entryDy=0;" edge="1" parent="1" source="7EtB1v8YptLS86tRCCEC-1" target="7EtB1v8YptLS86tRCCEC-3">
          <mxGeometry relative="1" as="geometry" />
        </mxCell>
        <mxCell id="7EtB1v8YptLS86tRCCEC-15" style="rounded=0;orthogonalLoop=1;jettySize=auto;html=1;entryX=1;entryY=0.5;entryDx=0;entryDy=0;" edge="1" parent="1" source="7EtB1v8YptLS86tRCCEC-1" target="7EtB1v8YptLS86tRCCEC-4">
          <mxGeometry relative="1" as="geometry" />
        </mxCell>
        <mxCell id="7EtB1v8YptLS86tRCCEC-1" value="User" style="shape=umlActor;verticalLabelPosition=bottom;verticalAlign=top;html=1;outlineConnect=0;" vertex="1" parent="1">
          <mxGeometry x="220" y="130" width="30" height="60" as="geometry" />
        </mxCell>
        <mxCell id="7EtB1v8YptLS86tRCCEC-48" style="rounded=0;orthogonalLoop=1;jettySize=auto;html=1;exitX=0;exitY=1;exitDx=0;exitDy=0;exitPerimeter=0;entryX=1;entryY=0.5;entryDx=0;entryDy=0;" edge="1" parent="1" source="7EtB1v8YptLS86tRCCEC-2" target="7EtB1v8YptLS86tRCCEC-40">
          <mxGeometry relative="1" as="geometry" />
        </mxCell>
        <mxCell id="7EtB1v8YptLS86tRCCEC-2" value="Instructor" style="shape=umlActor;verticalLabelPosition=bottom;verticalAlign=top;html=1;outlineConnect=0;" vertex="1" parent="1">
          <mxGeometry x="220" y="440" width="30" height="60" as="geometry" />
        </mxCell>
        <mxCell id="7EtB1v8YptLS86tRCCEC-3" value="Login" style="ellipse;whiteSpace=wrap;html=1;" vertex="1" parent="1">
          <mxGeometry x="20" y="130" width="100" height="30" as="geometry" />
        </mxCell>
        <mxCell id="7EtB1v8YptLS86tRCCEC-4" value="Register" style="ellipse;whiteSpace=wrap;html=1;" vertex="1" parent="1">
          <mxGeometry x="20" y="190" width="100" height="30" as="geometry" />
        </mxCell>
        <mxCell id="7EtB1v8YptLS86tRCCEC-7" style="rounded=0;orthogonalLoop=1;jettySize=auto;html=1;exitX=0.5;exitY=0;exitDx=0;exitDy=0;exitPerimeter=0;" edge="1" parent="1" source="7EtB1v8YptLS86tRCCEC-2" target="7EtB1v8YptLS86tRCCEC-1">
          <mxGeometry relative="1" as="geometry">
            <mxPoint x="260" y="237" as="sourcePoint" />
            <mxPoint x="160" y="120" as="targetPoint" />
          </mxGeometry>
        </mxCell>
        <mxCell id="7EtB1v8YptLS86tRCCEC-23" value="" style="rounded=0;orthogonalLoop=1;jettySize=auto;html=1;" edge="1" parent="1" source="7EtB1v8YptLS86tRCCEC-10" target="7EtB1v8YptLS86tRCCEC-22">
          <mxGeometry relative="1" as="geometry" />
        </mxCell>
        <mxCell id="7EtB1v8YptLS86tRCCEC-29" style="rounded=0;orthogonalLoop=1;jettySize=auto;html=1;" edge="1" parent="1" source="7EtB1v8YptLS86tRCCEC-10" target="7EtB1v8YptLS86tRCCEC-28">
          <mxGeometry relative="1" as="geometry" />
        </mxCell>
        <mxCell id="7EtB1v8YptLS86tRCCEC-10" value="Student" style="shape=umlActor;verticalLabelPosition=bottom;verticalAlign=top;html=1;outlineConnect=0;" vertex="1" parent="1">
          <mxGeometry x="170" y="290" width="30" height="60" as="geometry" />
        </mxCell>
        <mxCell id="7EtB1v8YptLS86tRCCEC-13" style="rounded=0;orthogonalLoop=1;jettySize=auto;html=1;exitX=0.75;exitY=0.1;exitDx=0;exitDy=0;exitPerimeter=0;" edge="1" parent="1" source="7EtB1v8YptLS86tRCCEC-10" target="7EtB1v8YptLS86tRCCEC-1">
          <mxGeometry relative="1" as="geometry">
            <mxPoint x="205" y="520" as="sourcePoint" />
            <mxPoint x="40" y="340" as="targetPoint" />
          </mxGeometry>
        </mxCell>
        <mxCell id="7EtB1v8YptLS86tRCCEC-22" value="Register/enroll course" style="ellipse;whiteSpace=wrap;html=1;verticalAlign=top;" vertex="1" parent="1">
          <mxGeometry x="5" y="250" width="100" height="40" as="geometry" />
        </mxCell>
        <mxCell id="7EtB1v8YptLS86tRCCEC-28" value="view their&lt;span style=&quot;background-color: transparent; color: light-dark(rgb(0, 0, 0), rgb(255, 255, 255));&quot;&gt;&amp;nbsp;course (enrolled in)&lt;/span&gt;" style="ellipse;whiteSpace=wrap;html=1;verticalAlign=top;" vertex="1" parent="1">
          <mxGeometry x="10" y="310" width="110" height="40" as="geometry" />
        </mxCell>
        <mxCell id="7EtB1v8YptLS86tRCCEC-34" value="" style="endArrow=none;dashed=1;html=1;dashPattern=1 3;strokeWidth=2;rounded=0;entryX=0.5;entryY=1;entryDx=0;entryDy=0;exitX=0.5;exitY=0;exitDx=0;exitDy=0;" edge="1" parent="1" source="7EtB1v8YptLS86tRCCEC-28" target="7EtB1v8YptLS86tRCCEC-22">
          <mxGeometry width="50" height="50" relative="1" as="geometry">
            <mxPoint y="370" as="sourcePoint" />
            <mxPoint x="50" y="320" as="targetPoint" />
          </mxGeometry>
        </mxCell>
        <mxCell id="7EtB1v8YptLS86tRCCEC-38" value="Create course" style="ellipse;whiteSpace=wrap;html=1;" vertex="1" parent="1">
          <mxGeometry x="10" y="490" width="120" height="40" as="geometry" />
        </mxCell>
        <mxCell id="7EtB1v8YptLS86tRCCEC-39" value="Assign grades to students" style="ellipse;whiteSpace=wrap;html=1;" vertex="1" parent="1">
          <mxGeometry x="20" y="558" width="120" height="40" as="geometry" />
        </mxCell>
        <mxCell id="7EtB1v8YptLS86tRCCEC-40" value="View the list of student enrolled in a course" style="ellipse;whiteSpace=wrap;html=1;" vertex="1" parent="1">
          <mxGeometry x="10" y="610" width="120" height="52.5" as="geometry" />
        </mxCell>
        <mxCell id="7EtB1v8YptLS86tRCCEC-42" value="view their&lt;span style=&quot;background-color: transparent; color: light-dark(rgb(0, 0, 0), rgb(255, 255, 255));&quot;&gt;&amp;nbsp;course instructor&lt;/span&gt;" style="ellipse;whiteSpace=wrap;html=1;verticalAlign=top;" vertex="1" parent="1">
          <mxGeometry x="10" y="360" width="110" height="40" as="geometry" />
        </mxCell>
        <mxCell id="7EtB1v8YptLS86tRCCEC-43" style="rounded=0;orthogonalLoop=1;jettySize=auto;html=1;entryX=1;entryY=0.5;entryDx=0;entryDy=0;" edge="1" parent="1" source="7EtB1v8YptLS86tRCCEC-2" target="7EtB1v8YptLS86tRCCEC-39">
          <mxGeometry relative="1" as="geometry">
            <mxPoint x="365" y="680" as="sourcePoint" />
            <mxPoint x="200" y="500" as="targetPoint" />
          </mxGeometry>
        </mxCell>
        <mxCell id="7EtB1v8YptLS86tRCCEC-44" style="rounded=0;orthogonalLoop=1;jettySize=auto;html=1;entryX=1;entryY=0.5;entryDx=0;entryDy=0;" edge="1" parent="1" source="7EtB1v8YptLS86tRCCEC-10" target="7EtB1v8YptLS86tRCCEC-42">
          <mxGeometry relative="1" as="geometry">
            <mxPoint x="465" y="430" as="sourcePoint" />
            <mxPoint x="300" y="250" as="targetPoint" />
          </mxGeometry>
        </mxCell>
        <mxCell id="7EtB1v8YptLS86tRCCEC-45" value="Can see their grades" style="ellipse;whiteSpace=wrap;html=1;verticalAlign=top;" vertex="1" parent="1">
          <mxGeometry x="10" y="410" width="110" height="40" as="geometry" />
        </mxCell>
        <mxCell id="7EtB1v8YptLS86tRCCEC-46" style="rounded=0;orthogonalLoop=1;jettySize=auto;html=1;entryX=1;entryY=0.5;entryDx=0;entryDy=0;" edge="1" parent="1" source="7EtB1v8YptLS86tRCCEC-10" target="7EtB1v8YptLS86tRCCEC-45">
          <mxGeometry relative="1" as="geometry">
            <mxPoint x="435" y="490" as="sourcePoint" />
            <mxPoint x="270" y="310" as="targetPoint" />
          </mxGeometry>
        </mxCell>
        <mxCell id="7EtB1v8YptLS86tRCCEC-47" style="rounded=0;orthogonalLoop=1;jettySize=auto;html=1;entryX=1;entryY=0.5;entryDx=0;entryDy=0;" edge="1" parent="1" source="7EtB1v8YptLS86tRCCEC-2" target="7EtB1v8YptLS86tRCCEC-38">
          <mxGeometry relative="1" as="geometry">
            <mxPoint x="445" y="560" as="sourcePoint" />
            <mxPoint x="120" y="520" as="targetPoint" />
          </mxGeometry>
        </mxCell>
        <mxCell id="7EtB1v8YptLS86tRCCEC-49" value="Adminstrator" style="shape=umlActor;verticalLabelPosition=bottom;verticalAlign=top;html=1;outlineConnect=0;" vertex="1" parent="1">
          <mxGeometry x="480" y="270" width="30" height="60" as="geometry" />
        </mxCell>
        <mxCell id="7EtB1v8YptLS86tRCCEC-53" style="rounded=0;orthogonalLoop=1;jettySize=auto;html=1;exitX=0.5;exitY=0;exitDx=0;exitDy=0;exitPerimeter=0;" edge="1" parent="1" source="7EtB1v8YptLS86tRCCEC-49" target="7EtB1v8YptLS86tRCCEC-1">
          <mxGeometry relative="1" as="geometry">
            <mxPoint x="455" y="380" as="sourcePoint" />
            <mxPoint x="290" y="200" as="targetPoint" />
          </mxGeometry>
        </mxCell>
        <mxCell id="7EtB1v8YptLS86tRCCEC-55" value="Add Instructor" style="ellipse;whiteSpace=wrap;html=1;" vertex="1" parent="1">
          <mxGeometry x="280" y="300" width="120" height="40" as="geometry" />
        </mxCell>
        <mxCell id="7EtB1v8YptLS86tRCCEC-56" value="Add Student" style="ellipse;whiteSpace=wrap;html=1;" vertex="1" parent="1">
          <mxGeometry x="280" y="440" width="120" height="40" as="geometry" />
        </mxCell>
        <mxCell id="7EtB1v8YptLS86tRCCEC-57" value="Remove Instructor" style="ellipse;whiteSpace=wrap;html=1;" vertex="1" parent="1">
          <mxGeometry x="280" y="350" width="120" height="40" as="geometry" />
        </mxCell>
        <mxCell id="7EtB1v8YptLS86tRCCEC-58" value="Remove student" style="ellipse;whiteSpace=wrap;html=1;" vertex="1" parent="1">
          <mxGeometry x="280" y="518" width="120" height="40" as="geometry" />
        </mxCell>
        <mxCell id="7EtB1v8YptLS86tRCCEC-59" style="rounded=0;orthogonalLoop=1;jettySize=auto;html=1;entryX=1;entryY=0.5;entryDx=0;entryDy=0;" edge="1" parent="1" source="7EtB1v8YptLS86tRCCEC-49" target="7EtB1v8YptLS86tRCCEC-56">
          <mxGeometry relative="1" as="geometry">
            <mxPoint x="685" y="570" as="sourcePoint" />
            <mxPoint x="520" y="390" as="targetPoint" />
          </mxGeometry>
        </mxCell>
        <mxCell id="7EtB1v8YptLS86tRCCEC-60" style="rounded=0;orthogonalLoop=1;jettySize=auto;html=1;entryX=1;entryY=0.5;entryDx=0;entryDy=0;" edge="1" parent="1" source="7EtB1v8YptLS86tRCCEC-49" target="7EtB1v8YptLS86tRCCEC-57">
          <mxGeometry relative="1" as="geometry">
            <mxPoint x="685" y="550" as="sourcePoint" />
            <mxPoint x="520" y="370" as="targetPoint" />
          </mxGeometry>
        </mxCell>
        <mxCell id="7EtB1v8YptLS86tRCCEC-62" style="rounded=0;orthogonalLoop=1;jettySize=auto;html=1;entryX=1;entryY=0.5;entryDx=0;entryDy=0;" edge="1" parent="1" source="7EtB1v8YptLS86tRCCEC-49" target="7EtB1v8YptLS86tRCCEC-55">
          <mxGeometry relative="1" as="geometry">
            <mxPoint x="496" y="400" as="sourcePoint" />
            <mxPoint x="410" y="310" as="targetPoint" />
          </mxGeometry>
        </mxCell>
        <mxCell id="7EtB1v8YptLS86tRCCEC-63" style="rounded=0;orthogonalLoop=1;jettySize=auto;html=1;entryX=1;entryY=0.5;entryDx=0;entryDy=0;" edge="1" parent="1" source="7EtB1v8YptLS86tRCCEC-49" target="7EtB1v8YptLS86tRCCEC-58">
          <mxGeometry relative="1" as="geometry">
            <mxPoint x="695" y="610" as="sourcePoint" />
            <mxPoint x="530" y="430" as="targetPoint" />
          </mxGeometry>
        </mxCell>
      </root>
    </mxGraphModel>
  </diagram>
  <diagram id="OcRK-k98SX2uyO5cT3SF" name="Class Diagram">
    <mxGraphModel dx="1290" dy="630" grid="1" gridSize="10" guides="1" tooltips="1" connect="1" arrows="1" fold="1" page="1" pageScale="1" pageWidth="827" pageHeight="1169" math="0" shadow="0">
      <root>
        <mxCell id="0" />
        <mxCell id="1" parent="0" />
      </root>
    </mxGraphModel>
  </diagram>
</mxfile>
